<?xml version="1.0" standalone="no"?>
<!DOCTYPE svg PUBLIC "-//W3C//DTD SVG 20010904//EN"
 "http://www.w3.org/TR/2001/REC-SVG-20010904/DTD/svg10.dtd">
<svg version="1.0" xmlns="http://www.w3.org/2000/svg"
 width="192.000000pt" height="192.000000pt" viewBox="0 0 192.000000 192.000000"
 preserveAspectRatio="xMidYMid meet">
<metadata>
Created by potrace 1.11, written by Peter Selinger 2001-2013
</metadata>
<g transform="translate(0.000000,192.000000) scale(0.100000,-0.100000)"
fill="#000000" stroke="none">
<path d="M0 960 l0 -960 255 0 c140 0 255 2 255 4 0 2 -27 39 -60 81 l-61 79
53 53 c29 29 55 53 58 52 3 0 50 -60 105 -134 100 -134 100 -134 141 -135 l41
0 -20 58 c-32 96 -8 185 77 279 50 55 115 93 161 93 44 0 108 -44 148 -102 21
-29 37 -58 37 -63 0 -6 -49 -60 -110 -120 -103 -103 -108 -110 -93 -127 10
-12 30 -18 56 -18 35 0 46 6 91 52 28 29 61 67 73 83 l21 30 43 -42 42 -42
-26 -40 -27 -41 330 0 330 0 0 326 0 326 -37 -32 c-71 -62 -151 -77 -222 -40
-74 37 -162 167 -177 257 -9 60 19 143 69 205 39 49 158 148 176 148 4 0 19
-27 33 -60 l26 -59 -49 -32 c-126 -80 -139 -161 -45 -265 36 -40 49 -48 78
-48 42 0 57 11 110 77 36 46 38 53 38 119 0 57 -4 75 -24 101 -35 47 -55 90
-67 146 -14 65 7 141 56 205 l35 46 0 250 0 250 -960 0 -960 0 0 -960z m1404
-187 c15 -31 25 -57 24 -58 -38 -23 -114 -85 -142 -115 -30 -33 -35 -44 -26
-60 12 -23 17 -21 115 35 117 67 185 53 236 -47 42 -82 12 -173 -88 -269 -53
-50 -119 -104 -150 -123 -8 -4 -21 11 -38 43 -14 28 -25 55 -25 60 0 5 31 32
70 61 76 56 110 96 110 129 0 31 -25 26 -103 -21 -48 -29 -83 -42 -118 -46
-47 -4 -51 -3 -93 39 -43 43 -72 109 -62 140 2 8 7 26 10 41 9 41 79 122 162
188 41 33 79 60 84 60 5 0 20 -25 34 -57z"/>
<path d="M924 246 c-25 -25 -34 -43 -34 -67 0 -69 14 -69 79 -4 l61 59 -22 23
c-29 31 -44 29 -84 -11z"/>
</g>
</svg>
